<svg xmlns="http://www.w3.org/2000/svg" viewBox="0 0 2227.2 4001.08"><defs><style>.cls-1{fill:#b6b2ab;}</style></defs><g id="Layer_2" data-name="Layer 2"><g id="Layer_1-2" data-name="Layer 1"><path class="cls-1" d="M17.33.19A15,15,0,0,0,0,15V127a15,15,0,0,0,17.33,14.82l92.47-14.55a15,15,0,0,1,17.33,14.82v112A15,15,0,0,1,109.8,269L42.62,258.42l-25.29-4A15,15,0,0,0,0,269.26v112a15,15,0,0,0,17.33,14.82l67.91-10.69,24.56-3.86a15,15,0,0,1,17.33,14.82v112a15,15,0,0,1-17.33,14.81L36.36,511.69l-19-3A15,15,0,0,0,0,523.52v112a15,15,0,0,0,17.33,14.81l74.4-11.7,18.07-2.84a15,15,0,0,1,17.33,14.81v112A15,15,0,0,1,109.8,777.5L32.22,765.3,17.33,763A15,15,0,0,0,0,777.77v112a15,15,0,0,0,17.33,14.82l80.78-12.71,11.69-1.84a15,15,0,0,1,17.33,14.82v132a15,15,0,0,1-17.33,14.82l-13.5-2.13-79-12.42A15,15,0,0,0,0,1052v94.58c0,8.29,6.74,15.64,15,15,20.51-1.57,81.32-12.55,81.32-12.55l13.49-2.13a15,15,0,0,1,17.33,14.82v132a15,15,0,0,1-17.33,14.82l-11.69-1.84-80.78-12.71A15,15,0,0,0,0,1308.88v112a15,15,0,0,0,17.33,14.82l14.89-2.35,77.58-12.2A15,15,0,0,1,127.14,1436v112a15,15,0,0,1-17.33,14.82L91.74,1560l-74.4-11.7A15,15,0,0,0,0,1563.14v112A15,15,0,0,0,17.34,1690l19-3,73.44-11.55a15,15,0,0,1,17.33,14.81v112c0,.09,0,.17,0,.26H17.34A15,15,0,0,0,0,1817.39v112a15,15,0,0,0,17.33,14.82l25.29-4,67.18-10.57a15,15,0,0,1,17.33,14.82v112a15,15,0,0,1-17.33,14.82l-67.18-10.57-25.29-4A15,15,0,0,0,0,2071.65v112a15,15,0,0,0,17.33,14.82H127.13c0,.09,0,.17,0,.26v112a15,15,0,0,1-17.33,14.81l-73.44-11.55-19-3A15,15,0,0,0,0,2325.9v112a15,15,0,0,0,17.33,14.82l74.4-11.7,18.07-2.85A15,15,0,0,1,127.14,2453v112a15,15,0,0,1-17.33,14.82l-77.58-12.2-14.89-2.35A15,15,0,0,0,0,2580.16v112A15,15,0,0,0,17.34,2707l80.78-12.71,11.69-1.84a15,15,0,0,1,17.33,14.82v132a15,15,0,0,1-17.33,14.82L96.32,2852S35.51,2841,15,2839.47c-8.26-.63-15,6.71-15,15v94.58a15,15,0,0,0,17.33,14.82l79-12.42,13.5-2.13a15,15,0,0,1,17.33,14.82v132A15,15,0,0,1,109.8,3111l-11.69-1.84-80.78-12.71A15,15,0,0,0,0,3111.27v112a15,15,0,0,0,17.33,14.82l14.89-2.35,77.58-12.2a15,15,0,0,1,17.33,14.82v112a15,15,0,0,1-17.33,14.81l-18.07-2.84-74.4-11.7A15,15,0,0,0,0,3365.53v112a15,15,0,0,0,17.33,14.82l19-3,73.44-11.55a15,15,0,0,1,17.33,14.81v112a15,15,0,0,1-17.33,14.82l-24.56-3.86L17.33,3605A15,15,0,0,0,0,3619.78v112a15,15,0,0,0,17.33,14.82l25.29-4,67.18-10.57a15,15,0,0,1,17.33,14.82v112a15,15,0,0,1-17.33,14.82l-92.47-14.55A15,15,0,0,0,0,3874v112a15,15,0,0,0,17.33,14.81H2227.2V.19Z"/></g></g></svg>