<?xml version="1.0" encoding="utf-8"?>
<!-- Generator: Adobe Illustrator 26.3.1, SVG Export Plug-In . SVG Version: 6.00 Build 0)  -->
<svg version="1.1" id="Layer_1" xmlns="http://www.w3.org/2000/svg" xmlns:xlink="http://www.w3.org/1999/xlink" x="0px" y="0px"
	 viewBox="0 0 2227.2 4001.1" style="enable-background:new 0 0 2227.2 4001.1;" xml:space="preserve">
<style type="text/css">
	.st0{fill:#DADAD9;}
</style>
<g id="Layer_2_00000016036821895000342660000007445873709858399371_">
	<g id="Layer_1-2">
		<path class="st0" d="M17.3,0.2C9.1-1.1,1.5,4.5,0.2,12.7C0.1,13.4,0,14.2,0,15v112c0,8.3,6.7,15,15,15c0.8,0,1.6-0.1,2.3-0.2
			l92.5-14.6c8.2-1.3,15.9,4.3,17.1,12.5c0.1,0.8,0.2,1.6,0.2,2.3v112c0.1,8.3-6.6,15-14.9,15.1c-0.8,0-1.6-0.1-2.4-0.2l-67.2-10.6
			l-25.3-4c-8.2-1.3-15.9,4.3-17.1,12.5c-0.1,0.8-0.2,1.6-0.2,2.4v112c0,8.3,6.7,15,15,15c0.8,0,1.6-0.1,2.3-0.2l67.9-10.7l24.6-3.9
			c8.2-1.3,15.9,4.3,17.1,12.5c0.1,0.8,0.2,1.6,0.2,2.3v112c0,8.3-6.7,15-15,15c-0.8,0-1.6-0.1-2.3-0.2l-73.4-11.5l-19-3
			c-8.2-1.3-15.9,4.3-17.2,12.5c-0.1,0.8-0.2,1.6-0.2,2.4v112c0,8.3,6.7,15,15,15c0.8,0,1.6-0.1,2.3-0.2l74.4-11.7l18.1-2.8
			c8.2-1.3,15.9,4.3,17.1,12.5c0.1,0.8,0.2,1.5,0.2,2.3v112c0,8.3-6.6,15-14.9,15.1c-0.8,0-1.6-0.1-2.4-0.2l-77.6-12.2L17.3,763
			c-8.2-1.3-15.9,4.3-17.1,12.5C0.1,776.2,0,777,0,777.8v112c0,8.3,6.7,15,15,15c0.8,0,1.6-0.1,2.3-0.2l80.8-12.7l11.7-1.8
			c8.2-1.3,15.9,4.3,17.1,12.5c0.1,0.8,0.2,1.6,0.2,2.3v132c0,8.3-6.7,15-15,15c-0.8,0-1.6-0.1-2.3-0.2l-13.5-2.1l-79-12.4
			c-8.2-1.3-15.9,4.3-17.1,12.5c-0.1,0.8-0.2,1.6-0.2,2.3v94.6c0,8.3,6.7,15.6,15,15c20.5-1.6,81.3-12.6,81.3-12.6l13.5-2.1
			c8.2-1.3,15.9,4.3,17.1,12.5c0.1,0.8,0.2,1.6,0.2,2.3v132c0,8.3-6.7,15-15,15c-0.8,0-1.6-0.1-2.3-0.2l-11.7-1.8L17.3,1294
			c-8.2-1.3-15.9,4.3-17.2,12.5c-0.1,0.8-0.2,1.6-0.2,2.4v112c0,8.3,6.7,15,15,15c0.8,0,1.6-0.1,2.3-0.2l14.9-2.3l77.6-12.2
			c8.2-1.3,15.9,4.3,17.2,12.5c0.1,0.8,0.2,1.6,0.2,2.4v112c0,8.3-6.7,15-15,15c-0.8,0-1.6-0.1-2.3-0.2l-18.1-2.8l-74.4-11.7
			c-8.2-1.3-15.9,4.3-17.2,12.5c-0.1,0.8-0.2,1.6-0.2,2.4v112c0,8.3,6.7,15,15,15c0.8,0,1.6-0.1,2.4-0.2l19-3l73.4-11.6
			c8.2-1.3,15.9,4.3,17.1,12.5c0.1,0.8,0.2,1.5,0.2,2.3v112c0,0.1,0,0.2,0,0.3H17.3c-8.2-1.3-15.9,4.3-17.2,12.5
			c-0.1,0.8-0.2,1.6-0.2,2.4v112c0,8.3,6.7,15,15,15c0.8,0,1.6-0.1,2.3-0.2l25.3-4l67.2-10.6c8.2-1.3,15.9,4.3,17.1,12.5
			c0.1,0.8,0.2,1.6,0.2,2.3v112c0,8.3-6.7,15-15,15c-0.8,0-1.6-0.1-2.3-0.2l-67.2-10.6l-25.3-4c-8.2-1.3-15.9,4.3-17.1,12.5
			c-0.1,0.8-0.2,1.6-0.2,2.5v112c0,8.3,6.7,15,15,15c0.8,0,1.6-0.1,2.3-0.2h109.8c0,0.1,0,0.2,0,0.3v112c0,8.3-6.7,15-15,15
			c-0.8,0-1.6-0.1-2.3-0.2L36.4,2314l-19-3c-8.2-1.3-15.9,4.3-17.2,12.5c-0.1,0.8-0.2,1.6-0.2,2.5v112c0,8.3,6.7,15,15,15
			c0.8,0,1.6-0.1,2.3-0.2l74.4-11.7l18.1-2.9c8.2-1.3,15.9,4.3,17.2,12.5c0.1,0.8,0.2,1.6,0.2,2.4v112c0,8.3-6.7,15-15,15
			c-0.8,0-1.6-0.1-2.3-0.2l-77.6-12.2l-14.9-2.4c-8.2-1.3-15.9,4.3-17.2,12.5c-0.1,0.8-0.2,1.6-0.2,2.4v112c0,8.3,6.7,15,15,15
			c0.8,0,1.6-0.1,2.4-0.2l80.8-12.7l11.7-1.8c8.2-1.3,15.9,4.3,17.1,12.5c0.1,0.8,0.2,1.6,0.2,2.3v132c0,8.3-6.7,15-15,15
			c-0.8,0-1.6-0.1-2.3-0.2l-13.5-2.1c0,0-60.8-11-81.3-12.5c-8.3-0.6-15,6.7-15,15v94.6c0,8.3,6.7,15,15,15c0.8,0,1.6-0.1,2.3-0.2
			l79-12.4l13.5-2.1c8.2-1.3,15.9,4.3,17.1,12.5c0.1,0.8,0.2,1.6,0.2,2.3v132c0,8.3-6.7,15-15,15c-0.8,0-1.6-0.1-2.4-0.2l-11.7-1.8
			l-80.8-12.7c-8.2-1.3-15.9,4.3-17.1,12.5c-0.1,0.8-0.2,1.6-0.2,2.3v112c0,8.3,6.7,15,15,15c0.8,0,1.6-0.1,2.3-0.2l14.9-2.4
			l77.6-12.2c8.2-1.3,15.9,4.3,17.1,12.5c0.1,0.8,0.2,1.6,0.2,2.3v112c0,8.3-6.7,15-15,15c-0.8,0-1.6-0.1-2.3-0.2l-18.1-2.8
			l-74.4-11.7c-8.2-1.3-15.9,4.3-17.1,12.5c-0.1,0.8-0.2,1.6-0.2,2.4v112c0,8.3,6.7,15,15,15c0.8,0,1.6-0.1,2.3-0.2l19-3l73.4-11.6
			c8.2-1.3,15.9,4.3,17.1,12.5c0.1,0.8,0.2,1.5,0.2,2.3v112c0,8.3-6.7,15-15,15c-0.8,0-1.6-0.1-2.3-0.2l-24.6-3.9L17.3,3605
			c-8.2-1.3-15.9,4.3-17.1,12.5c-0.1,0.8-0.2,1.5-0.2,2.3v112c0,8.3,6.7,15,15,15c0.8,0,1.6-0.1,2.3-0.2l25.3-4l67.2-10.6
			c8.2-1.3,15.9,4.3,17.1,12.5c0.1,0.8,0.2,1.6,0.2,2.3v112c0,8.3-6.7,15-15,15c-0.8,0-1.6-0.1-2.3-0.2l-92.5-14.6
			c-8.2-1.3-15.9,4.3-17.1,12.5c-0.1,0.8-0.2,1.6-0.2,2.4v112c0,8.3,6.7,15,15,15c0.8,0,1.6-0.1,2.3-0.2h2209.9V0.2H17.3z"/>
	</g>
</g>
</svg>
