<svg xmlns="http://www.w3.org/2000/svg" viewBox="0 0 500 54.33"><defs><style>.cls-1{fill:#fff;}</style></defs><g id="Layer_2" data-name="Layer 2"><g id="Layer_1-2" data-name="Layer 1"><g id="Layer_2-2" data-name="Layer 2"><g id="Layer_1-2-2" data-name="Layer 1-2"><g id="Layer_2-2-2" data-name="Layer 2-2"><g id="Layer_1-2-2-2" data-name="Layer 1-2-2"><path class="cls-1" d="M60.26.82h14v.42C72.69,2.06,70.73,3,68.33,4L51,54.24H49.46l-11.87-37-13,37H23.33L5.27,3.53C3.31,2.81,1.74,2.06,0,1.24V.82H19.38v.42L12.77,3.55,26.86,43.77l10-28.66L33.07,3.47a54.07,54.07,0,0,1-5.2-2.21V.82H47.16v.42A58.61,58.61,0,0,1,41,3.44l11.93,40.9L66.76,4l-6.61-2.8Z"/><path class="cls-1" d="M114.32.82v.42c-1.81.75-4.41,1.65-6.26,2.2V50.85c1.9.57,4.41,1.48,6.26,2.2v.42H94.81v-.42c1.81-.72,4.41-1.63,6.26-2.2V3.47C99.18,2.89,96.66,2,94.81,1.26V.82Z"/><path class="cls-1" d="M178.71,35.53h.57c.42,5,.48,12.94.48,18h-39v-.42c1.81-.73,4.41-1.64,6.26-2.21V3.47c-1.89-.58-4.41-1.48-6.26-2.21V.82h19.45v.42C158.4,2,155.8,2.89,154,3.44V50.85l3.88,1.3h13.42Z"/><path class="cls-1" d="M241,35.53h.57c.42,5,.51,12.94.51,18h-39v-.42c1.83-.73,4.41-1.64,6.29-2.21V3.47C207.48,2.89,205,2,203.09,1.26V.82h19.47v.42c-1.83.75-4.41,1.65-6.26,2.2V50.85l3.86,1.3h13.56Z"/><path class="cls-1" d="M284.87.82v.42c-1.81.75-4.41,1.65-6.26,2.2V50.85c1.89.57,4.41,1.48,6.26,2.2v.42H265.42v-.42c1.81-.72,4.41-1.63,6.26-2.2V3.47c-1.89-.58-4.4-1.48-6.26-2.21V.82Z"/><path class="cls-1" d="M332.67.25l19,50.47a42.66,42.66,0,0,1,6,2.2v.42H337.81v-.42c2.2-.81,4.12-1.56,6.26-2.2L338.8,36.54H318.6l-5.2,13.6c2.4,1,4.28,1.9,6.26,2.87v.42H305.49V53a56,56,0,0,1,6.43-2.87L331.28.25ZM329,9.82l-9.73,25.46h19.12Z"/><path class="cls-1" d="M437.27,50.87c2.07.64,4,1.39,6,2.21v.42h-19.2v-.42c2.05-.82,4-1.57,6.17-2.21l-4-43.7h0L408.1,52.59h-1.23l-18.06-46h0l-3.95,43.7c2.38.82,5,1.9,7.17,2.87v.42H376.59v-.39c2-.91,4.41-2,6.62-2.87l4.41-46.17L387.44,4c-2.47-.84-4.94-1.75-7.25-2.65V.82h13.93L410.37,43,427.06.82h11.86v.42c-2.07.82-4.12,1.57-6.26,2.2h0Z"/><path class="cls-1" d="M467.61,51.69c-.18-5.12-.18-10.72,0-15.17h.57l7.76,15.17a16.79,16.79,0,0,0,6.93,1.23c7.32,0,12-3.88,12-11,0-14.51-27.18-10.72-27.18-28.67,0-8.82,7.16-13.23,16-13.23a29.92,29.92,0,0,1,13.84,2.87c0,4.7-.24,9.48-.57,14.18h-.51L489.13,2.81a11.27,11.27,0,0,0-5.78-1.48c-6.61,0-10.62,3.46-10.62,9.39,0,14.09,27.27,10.14,27.27,29.17,0,9.81-8.25,14.44-18.21,14.44A38,38,0,0,1,467.61,51.69Z"/></g></g></g></g></g></g></svg>