<?xml version="1.0" encoding="utf-8"?>
<!-- Generator: Adobe Illustrator 26.3.1, SVG Export Plug-In . SVG Version: 6.00 Build 0)  -->
<svg version="1.1" id="Layer_1" xmlns="http://www.w3.org/2000/svg" xmlns:xlink="http://www.w3.org/1999/xlink" x="0px" y="0px"
	 viewBox="0 0 16 11.5" style="enable-background:new 0 0 16 11.5;" xml:space="preserve">
<g id="Layer_2_00000158025522017759996880000002970997297867279544_">
	<g id="Layer_1-2">
		<path d="M13,0h3v0.1c-0.3,0.2-0.8,0.4-1.3,0.6L11,11.5h-0.3l-2.6-8l-2.8,8H5L1.1,0.6C0.8,0.4,0.4,0.3,0,0.1V0h4.2v0.1L2.8,0.6
			l3,8.7L8,3.1L7.1,0.6C6.7,0.4,6.4,0.3,6,0.1V0h4.2v0.1C9.7,0.3,9.3,0.4,8.8,0.6l2.6,8.8l3-8.7L13,0L13,0z"/>
	</g>
</g>
</svg>
